<svg xmlns="http://www.w3.org/2000/svg" viewBox="0 0 1360.43 667.51"><defs><style>.cls-1{fill:#212529;}.cls-2{fill:#0096d6;}</style></defs><g id="Ebene_2" data-name="Ebene 2"><g id="logo_withtype_Image" data-name="logo_withtype Image"><path class="cls-1" d="M541.87,349.57l-99.08,1.71s69.83,131,237.37,131S917.65,349.57,917.65,349.57H818.56s-52.17,49.37-138.4,49.37S541.87,349.57,541.87,349.57Z"/><path class="cls-1" d="M489.42,289.19s-32.92-48.68-28.46-119S503.13,50.57,503.13,50.57L470.22,17.65s-52.46,58.29-65.49,135.77,10.63,142.63,10.63,142.63Z"/><path class="cls-1" d="M870.7,289.19s32.92-48.68,28.46-119S857,50.57,857,50.57L889.9,17.65s52.46,58.29,65.49,135.77-10.63,142.63-10.63,142.63Z"/><polygon class="cls-2" points="0 335.08 565.79 325.82 680.16 64.31 680.22 0 513.42 286.14 0 335.08"/><polygon class="cls-2" points="1360.43 335.08 794.65 325.82 680.27 64.31 680.22 0 847.02 286.14 1360.43 335.08"/><path class="cls-1" d="M187.77,642.3h-10.2V550.53h10.2Z"/><path class="cls-1" d="M216.7,576.44v6.89a18.38,18.38,0,0,1,15.16-7.72,23,23,0,0,1,17.09,7c6.33,6.75,6.33,14.74,6.33,24.38V642.3h-9.64V607c0-8.54,0-14.33-4-18.32a15.7,15.7,0,0,0-20.94,0c-4,4-4,9.78-4,18.32V642.3h-9.64V576.44Z"/><path class="cls-1" d="M306.82,588.56a39.29,39.29,0,0,0-16.54-3.86,15.28,15.28,0,0,0-8.26,1.93,7.93,7.93,0,0,0-4,6.89,8.6,8.6,0,0,0,3.44,6.75c2.76,2.21,5.65,2.9,10.61,4s9.51,2.34,13.37,5.1a18.38,18.38,0,0,1,8.13,15,17.53,17.53,0,0,1-7.44,14.33c-4.27,3-9.51,4.41-15.85,4.41a52.33,52.33,0,0,1-22.18-4.83L272,630a44,44,0,0,0,18.32,4c4,0,7.44-.69,10.06-2.62a8.64,8.64,0,0,0,3.58-7,9.31,9.31,0,0,0-3.85-7.44c-3-2.21-6.48-3-10.89-4s-9.37-2.2-13.5-5.37a17.84,17.84,0,0,1-7.31-14.06,16.86,16.86,0,0,1,7.45-13.92c4-2.75,8.81-4,14.46-4a47.66,47.66,0,0,1,20.12,4.55Z"/><path class="cls-1" d="M372.82,583.74c6.2,7.44,6.2,16.53,6.2,25.63s0,18.19-6.2,25.63c-4,4.82-10.47,8.13-18.6,8.13a20.12,20.12,0,0,1-16.54-8.41v32.79H328V576.44h9.64V584a20.14,20.14,0,0,1,16.54-8.4C362.35,575.61,368.82,578.92,372.82,583.74Zm-31,5.79c-4.14,4.82-4.14,12.4-4.14,19.84s0,15,4.14,19.84c2.48,2.89,6.47,4.82,11.71,4.82s9.23-1.93,11.71-4.82c4.13-4.82,4.13-12.4,4.13-19.84s0-15-4.13-19.84c-2.48-2.9-6.48-4.83-11.71-4.83S344.3,586.63,341.82,589.53Z"/><path class="cls-1" d="M405.47,559.35a6.48,6.48,0,1,1-6.47-6.48A6.22,6.22,0,0,1,405.47,559.35Zm-11.29,17.09h9.64V642.3h-9.64Z"/><path class="cls-1" d="M456.32,577l-2.48,8.82a17.86,17.86,0,0,0-6.62-1.11c-5.23,0-9.23,1.93-11.71,4.83-4.13,4.82-4.13,12.4-4.13,19.84V642.3h-9.65V576.44h9.65V584a20.12,20.12,0,0,1,16.53-8.4A26.64,26.64,0,0,1,456.32,577Z"/><path class="cls-1" d="M507.44,583.74c5.79,6.89,6.34,15.15,6.34,25.63v2.75H472.44c0,4,0,12.13,4.13,17,2.48,2.89,6.48,5,13.09,5a35.89,35.89,0,0,0,17.5-4.41l3.86,8.27a45.74,45.74,0,0,1-21.36,5.24c-9.09,0-16-3-20.53-8.27-6.33-7.3-6.33-17.23-6.33-25.49,0-8.82,0-18.19,6.33-25.63,4.14-4.82,10.89-8.13,19.16-8.13S503.31,578.92,507.44,583.74Zm-7,6.2c-2.89-3.72-7.58-5.24-12.12-5.24s-9.24,1.52-12.13,5.24-3.72,8.68-3.72,13.64h31.69C504.13,598.62,503.31,593.66,500.41,589.94Z"/><path class="cls-2" d="M538.85,550.53l28.94,56.91,28.8-56.91h9.09V642.3h-10.2V573.13L572.2,619.56h-8.82L540.09,573.4v68.9H529.9V550.53Z"/><path class="cls-2" d="M666.86,583.74c5.79,6.89,6.34,15.15,6.34,25.63v2.75H631.86c0,4,0,12.13,4.14,17,2.48,2.89,6.47,5,13.09,5a35.92,35.92,0,0,0,17.5-4.41l3.85,8.27a45.73,45.73,0,0,1-21.35,5.24c-9.1,0-16-3-20.53-8.27-6.34-7.3-6.34-17.23-6.34-25.49,0-8.82,0-18.19,6.34-25.63,4.13-4.82,10.88-8.13,19.15-8.13S662.73,578.92,666.86,583.74Zm-7,6.2c-2.89-3.72-7.57-5.24-12.12-5.24s-9.23,1.52-12.13,5.24-3.72,8.68-3.72,13.64h31.69C663.55,598.62,662.73,593.66,659.83,589.94Z"/><path class="cls-2" d="M726.25,584V550.53h9.64V642.3h-9.64v-7.58a20.1,20.1,0,0,1-16.54,8.41c-8.13,0-14.6-3.31-18.6-8.13-6.2-7.44-6.2-16.54-6.2-25.63s0-18.19,6.2-25.63c4-4.82,10.47-8.13,18.6-8.13A20.12,20.12,0,0,1,726.25,584Zm-27.56,5.52c-4.13,4.82-4.13,12.4-4.13,19.84s0,15,4.13,19.84c2.48,2.89,6.48,4.82,11.71,4.82s9.23-1.93,11.72-4.82c4.13-4.82,4.13-12.4,4.13-19.84s0-15-4.13-19.84c-2.49-2.9-6.48-4.83-11.72-4.83S701.17,586.63,698.69,589.53Z"/><path class="cls-2" d="M765.11,559.35a6.48,6.48,0,1,1-6.48-6.48A6.23,6.23,0,0,1,765.11,559.35Zm-11.3,17.09h9.64V642.3h-9.64Z"/><path class="cls-2" d="M820.36,582.91c5.51,6.2,5.51,14.33,5.51,20.26V642.3h-9.64v-7.86a20,20,0,0,1-16.82,8.69,22.82,22.82,0,0,1-14.32-4.69,20.31,20.31,0,0,1-7.86-15.57,19.47,19.47,0,0,1,8.13-16c6.48-4.69,14.19-4.69,19.57-4.69h11.3c0-4.27,0-9.78-3.31-13.5-2.34-2.62-5.93-4-11.16-4a51.22,51.22,0,0,0-18,3.59l-2.9-8.69a59.71,59.71,0,0,1,21-4C810,575.61,816.23,578.23,820.36,582.91ZM791,631.14A14.64,14.64,0,0,0,800.1,634c5.93,0,10.61-2.75,13.09-6.47,3-4.55,3-9.79,3-16.81h-11.3c-4.69,0-9.51,0-13.51,2.89a10.57,10.57,0,0,0-4.54,8.82A11.65,11.65,0,0,0,791,631.14Z"/><path class="cls-1" d="M932,558.94l-6.2,7.57a24.65,24.65,0,0,0-17.91-7.16c-6.76,0-12.41,2.48-15.85,6.89-5,6.34-5,14.33-5,30.18s0,23.69,4.82,30c3.31,4.27,8.68,7,16,7s12.67-2.76,16-7c4.13-5.37,4.68-12,4.82-23.7h-19v-9.64h29.21c0,20.53,0,30.17-6.75,39-5,6.48-13.23,11-24.25,11s-19.29-4.55-24.25-11c-6.76-8.82-6.76-18.46-6.76-35.68,0-16.68,0-27,6.89-35.83,4.83-6.2,13.09-10.88,24.12-10.88C917.78,549.71,926.46,553.56,932,558.94Z"/><path class="cls-1" d="M1031.31,581.53c6.76,6.48,6.76,15.3,6.76,25.49V642.3h-9.65V607c0-8.95,0-13.5-2.62-17.36-2.06-3-5.78-5-10.47-5s-8.4,1.93-10.47,5c-2.62,3.86-2.62,8.41-2.62,17.36V642.3H992.6V607c0-8.95,0-13.5-2.62-17.36-2.07-3-5.79-5-10.47-5s-8.41,1.93-10.48,5c-2.61,3.86-2.61,8.41-2.61,17.36V642.3h-9.65V576.44h9.65v6.33a16.86,16.86,0,0,1,13.78-7.16c8.54,0,14.6,4.13,18,11a20.36,20.36,0,0,1,17.78-11A22,22,0,0,1,1031.31,581.53Z"/><path class="cls-1" d="M1099.38,583.74c6.2,7.44,6.2,16.53,6.2,25.63s0,18.19-6.2,25.63c-4,4.82-10.47,8.13-18.6,8.13a20.1,20.1,0,0,1-16.53-8.41v7.58h-9.65V550.53h9.65V584a20.12,20.12,0,0,1,16.53-8.4C1088.91,575.61,1095.39,578.92,1099.38,583.74Zm-31,5.79c-4.13,4.82-4.13,12.4-4.13,19.84s0,15,4.13,19.84c2.48,2.89,6.48,4.82,11.71,4.82s9.24-1.93,11.71-4.82c4.14-4.82,4.14-12.4,4.14-19.84s0-15-4.14-19.84c-2.47-2.9-6.47-4.83-11.71-4.83S1070.86,586.63,1068.38,589.53Z"/><path class="cls-1" d="M1132.32,550.53v39.69h40.23V550.53h10.2V642.3h-10.2V599.86h-40.23V642.3h-10.2V550.53Z"/></g></g></svg>